{"glyphs":{"0":{"ha":933,"x_min":14,"x_max":783,"o":"m 14 769 l 14 0 l 783 0 l 783 769 l 14 769 l 14 769 m 168 615 l 629 615 l 629 154 l 168 154 l 168 615 l 168 615 m 322 461 l 322 308 l 475 308 l 475 461 l 322 461 l 322 461 z "},"1":{"ha":479,"x_min":14,"x_max":321,"o":"m 167 615 l 167 0 l 321 0 l 321 769 l 14 769 l 14 615 l 167 615 l 167 615 z "},"2":{"ha":931,"x_min":14,"x_max":783,"o":"m 14 461 l 14 0 l 783 0 l 783 153 l 168 153 l 168 307 l 783 307 l 783 769 l 14 769 l 14 615 l 629 615 l 629 461 l 14 461 l 14 461 z "},"3":{"ha":931,"x_min":14,"x_max":783,"o":"m 14 153 l 14 0 l 783 0 l 783 769 l 14 769 l 14 615 l 629 615 l 629 461 l 168 461 l 168 307 l 629 307 l 629 153 l 14 153 l 14 153 z "},"4":{"ha":939,"x_min":14,"x_max":783,"o":"m 629 307 l 629 0 l 783 0 l 783 769 l 629 769 l 629 463 l 167 463 l 167 769 l 14 769 l 14 307 l 629 307 l 629 307 z "},"5":{"ha":939,"x_min":14,"x_max":783,"o":"m 14 153 l 14 0 l 783 0 l 783 461 l 168 461 l 168 615 l 783 615 l 783 769 l 14 769 l 14 307 l 629 307 l 629 153 l 14 153 l 14 153 z "},"6":{"ha":936,"x_min":14,"x_max":783,"o":"m 14 769 l 14 0 l 783 0 l 783 461 l 168 461 l 168 615 l 783 615 l 783 769 l 14 769 l 14 769 m 168 307 l 629 307 l 629 154 l 168 154 l 168 307 l 168 307 z "},"7":{"ha":939,"x_min":14,"x_max":783,"o":"m 629 615 l 629 0 l 783 0 l 783 769 l 14 769 l 14 615 l 629 615 l 629 615 z "},"8":{"ha":936,"x_min":14,"x_max":783,"o":"m 14 769 l 14 0 l 783 0 l 783 769 l 14 769 l 14 769 m 168 307 l 629 307 l 629 154 l 168 154 l 168 307 l 168 307 m 168 615 l 629 615 l 629 463 l 168 463 l 168 615 l 168 615 z "},"9":{"ha":940,"x_min":14,"x_max":783,"o":"m 14 153 l 14 0 l 783 0 l 783 769 l 14 769 l 14 307 l 629 307 l 629 153 l 14 153 l 14 153 m 168 615 l 629 615 l 629 463 l 168 463 l 168 615 l 168 615 z "}," ":{"ha":694,"x_min":0,"x_max":0,"o":""},"!":{"ha":311,"x_min":14,"x_max":167,"o":"m 14 153 l 14 0 l 167 0 l 167 153 l 14 153 l 14 153 m 14 769 l 14 308 l 167 308 l 167 769 l 14 769 l 14 769 z "},"\"":{"ha":615,"x_min":14,"x_max":475,"o":"m 14 769 l 14 463 l 167 463 l 167 769 l 14 769 l 14 769 m 322 769 l 322 463 l 475 463 l 475 769 l 322 769 l 322 769 z "},"'":{"ha":311,"x_min":14,"x_max":167,"o":"m 14 769 l 14 463 l 167 463 l 167 769 l 14 769 l 14 769 z "},"(":{"ha":469,"x_min":14,"x_max":321,"o":"m 168 -1 l 168 -154 l 321 -154 l 321 -1 l 168 -1 l 168 -1 m 14 769 l 14 0 l 167 0 l 167 769 l 321 769 l 321 924 l 167 924 l 167 769 l 14 769 l 14 769 z "},")":{"ha":465,"x_min":14,"x_max":321,"o":"m 14 -1 l 14 -154 l 167 -154 l 167 -1 l 321 -1 l 321 769 l 167 769 l 167 -1 l 14 -1 l 14 -1 m 14 924 l 14 771 l 167 771 l 167 924 l 14 924 l 14 924 z "},"+":{"ha":939,"x_min":14,"x_max":783,"o":"m 321 307 l 321 0 l 475 0 l 475 307 l 783 307 l 783 461 l 475 461 l 475 769 l 321 769 l 321 461 l 14 461 l 14 307 l 321 307 l 321 307 z "},",":{"ha":319,"x_min":14,"x_max":167,"o":"m 14 153 l 14 -154 l 167 -154 l 167 153 l 14 153 l 14 153 z "},"-":{"ha":924,"x_min":14,"x_max":783,"o":"m 14 461 l 14 308 l 783 308 l 783 461 l 14 461 l 14 461 z "},".":{"ha":319,"x_min":14,"x_max":167,"o":"m 14 153 l 14 0 l 167 0 l 167 153 l 14 153 l 14 153 z "},"/":{"ha":933,"x_min":14,"x_max":783,"o":"m 14 153 l 14 0 l 167 0 l 167 153 l 321 153 l 321 307 l 475 307 l 475 461 l 629 461 l 629 615 l 783 615 l 783 769 l 629 769 l 629 615 l 475 615 l 475 461 l 321 461 l 321 307 l 167 307 l 167 153 l 14 153 l 14 153 z "},":":{"ha":326,"x_min":14,"x_max":167,"o":"m 14 153 l 14 0 l 167 0 l 167 153 l 14 153 l 14 153 m 14 615 l 14 463 l 167 463 l 167 615 l 14 615 l 14 615 z "},";":{"ha":332,"x_min":14,"x_max":167,"o":"m 14 153 l 14 -154 l 167 -154 l 167 153 l 14 153 l 14 153 m 14 615 l 14 463 l 167 463 l 167 615 l 14 615 l 14 615 z "},"?":{"ha":936,"x_min":14,"x_max":783,"o":"m 322 153 l 322 0 l 475 0 l 475 153 l 322 153 l 322 153 m 322 461 l 322 308 l 783 308 l 783 769 l 14 769 l 14 615 l 629 615 l 629 461 l 322 461 l 322 461 z "},"A":{"ha":936,"x_min":14,"x_max":783,"o":"m 14 461 l 14 0 l 783 0 l 783 769 l 14 769 l 14 615 l 629 615 l 629 461 l 14 461 l 14 461 m 168 307 l 629 307 l 629 154 l 168 154 l 168 307 l 168 307 z "},"B":{"ha":931,"x_min":14,"x_max":783,"o":"m 14 1078 l 14 0 l 783 0 l 783 769 l 167 769 l 167 1078 l 14 1078 l 14 1078 m 168 615 l 629 615 l 629 154 l 168 154 l 168 615 l 168 615 z "},"C":{"ha":939,"x_min":14,"x_max":783,"o":"m 14 769 l 14 0 l 783 0 l 783 153 l 168 153 l 168 615 l 783 615 l 783 769 l 14 769 l 14 769 z "},"D":{"ha":943,"x_min":14,"x_max":783,"o":"m 14 769 l 14 0 l 783 0 l 783 1078 l 629 1078 l 629 769 l 14 769 l 14 769 m 168 615 l 629 615 l 629 154 l 168 154 l 168 615 l 168 615 z "},"E":{"ha":936,"x_min":14,"x_max":783,"o":"m 14 769 l 14 0 l 783 0 l 783 153 l 168 153 l 168 307 l 783 307 l 783 769 l 14 769 l 14 769 m 168 615 l 629 615 l 629 463 l 168 463 l 168 615 l 168 615 z "},"F":{"ha":933,"x_min":14,"x_max":783,"o":"m 14 769 l 14 -308 l 167 -308 l 167 307 l 629 307 l 629 461 l 168 461 l 168 615 l 783 615 l 783 769 l 14 769 l 14 769 z "},"G":{"ha":939,"x_min":14,"x_max":783,"o":"m 14 -156 l 14 -308 l 783 -308 l 783 769 l 14 769 l 14 -1 l 629 -1 l 629 -156 l 14 -156 l 14 -156 m 168 615 l 629 615 l 629 154 l 168 154 l 168 615 l 168 615 z "},"H":{"ha":939,"x_min":14,"x_max":783,"o":"m 14 1078 l 14 0 l 167 0 l 167 615 l 629 615 l 629 0 l 783 0 l 783 769 l 167 769 l 167 1078 l 14 1078 l 14 1078 z "},"I":{"ha":326,"x_min":14,"x_max":167,"o":"m 14 769 l 14 0 l 167 0 l 167 769 l 14 769 l 14 769 m 14 1078 l 14 925 l 167 925 l 167 1078 l 14 1078 l 14 1078 z "},"J":{"ha":476,"x_min":14,"x_max":321,"o":"m 14 -156 l 14 -308 l 321 -308 l 321 769 l 167 769 l 167 -156 l 14 -156 l 14 -156 m 168 1078 l 168 925 l 321 925 l 321 1078 l 168 1078 l 168 1078 z "},"K":{"ha":939,"x_min":14,"x_max":783,"o":"m 14 1078 l 14 0 l 167 0 l 167 307 l 475 307 l 475 461 l 629 461 l 629 615 l 783 615 l 783 769 l 629 769 l 629 615 l 475 615 l 475 463 l 167 463 l 167 1078 l 14 1078 l 14 1078 m 631 153 l 631 0 l 783 0 l 783 153 l 631 153 l 631 153 m 476 307 l 476 154 l 629 154 l 629 307 l 476 307 l 476 307 z "},"L":{"ha":472,"x_min":14,"x_max":321,"o":"m 14 1078 l 14 0 l 321 0 l 321 153 l 167 153 l 167 1078 l 14 1078 l 14 1078 z "},"M":{"ha":933,"x_min":14,"x_max":783,"o":"m 14 769 l 14 0 l 167 0 l 167 615 l 321 615 l 321 0 l 475 0 l 475 615 l 629 615 l 629 0 l 783 0 l 783 769 l 14 769 l 14 769 z "},"N":{"ha":933,"x_min":14,"x_max":783,"o":"m 14 769 l 14 0 l 167 0 l 167 615 l 629 615 l 629 0 l 783 0 l 783 769 l 14 769 l 14 769 z "},"O":{"ha":931,"x_min":14,"x_max":783,"o":"m 14 769 l 14 0 l 783 0 l 783 769 l 14 769 l 14 769 m 168 615 l 629 615 l 629 154 l 168 154 l 168 615 l 168 615 z "},"P":{"ha":940,"x_min":14,"x_max":783,"o":"m 14 769 l 14 -308 l 167 -308 l 167 -1 l 783 -1 l 783 769 l 14 769 l 14 769 m 168 615 l 629 615 l 629 154 l 168 154 l 168 615 l 168 615 z "},"Q":{"ha":936,"x_min":14,"x_max":783,"o":"m 629 -1 l 629 -308 l 783 -308 l 783 769 l 14 769 l 14 -1 l 629 -1 l 629 -1 m 168 615 l 629 615 l 629 154 l 168 154 l 168 615 l 168 615 z "},"R":{"ha":933,"x_min":14,"x_max":783,"o":"m 14 769 l 14 0 l 167 0 l 167 615 l 783 615 l 783 769 l 14 769 l 14 769 z "},"S":{"ha":936,"x_min":14,"x_max":783,"o":"m 14 153 l 14 0 l 783 0 l 783 461 l 168 461 l 168 615 l 783 615 l 783 769 l 14 769 l 14 307 l 629 307 l 629 153 l 14 153 l 14 153 z "},"T":{"ha":933,"x_min":14,"x_max":783,"o":"m 14 1078 l 14 0 l 783 0 l 783 153 l 168 153 l 168 615 l 475 615 l 475 769 l 167 769 l 167 1078 l 14 1078 l 14 1078 z "},"U":{"ha":933,"x_min":14,"x_max":783,"o":"m 14 769 l 14 0 l 783 0 l 783 769 l 629 769 l 629 154 l 167 154 l 167 769 l 14 769 l 14 769 z "},"V":{"ha":939,"x_min":14,"x_max":783,"o":"m 322 153 l 322 0 l 475 0 l 475 153 l 629 153 l 629 307 l 783 307 l 783 769 l 629 769 l 629 307 l 475 307 l 475 153 l 322 153 l 322 153 m 168 307 l 168 154 l 321 154 l 321 307 l 168 307 l 168 307 m 14 769 l 14 308 l 167 308 l 167 769 l 14 769 l 14 769 z "},"W":{"ha":936,"x_min":14,"x_max":783,"o":"m 14 769 l 14 0 l 783 0 l 783 769 l 629 769 l 629 154 l 475 154 l 475 615 l 321 615 l 321 154 l 167 154 l 167 769 l 14 769 l 14 769 z "},"X":{"ha":931,"x_min":14,"x_max":783,"o":"m 14 153 l 14 0 l 167 0 l 167 153 l 321 153 l 321 307 l 475 307 l 475 461 l 629 461 l 629 615 l 783 615 l 783 769 l 629 769 l 629 615 l 475 615 l 475 461 l 321 461 l 321 307 l 167 307 l 167 153 l 14 153 l 14 153 m 631 153 l 631 0 l 783 0 l 783 153 l 631 153 l 631 153 m 476 307 l 476 154 l 629 154 l 629 307 l 476 307 l 476 307 m 168 615 l 168 463 l 321 463 l 321 615 l 168 615 l 168 615 m 14 769 l 14 617 l 167 617 l 167 769 l 14 769 l 14 769 z "},"Y":{"ha":933,"x_min":14,"x_max":783,"o":"m 14 -156 l 14 -308 l 783 -308 l 783 769 l 629 769 l 629 154 l 167 154 l 167 769 l 14 769 l 14 -1 l 629 -1 l 629 -156 l 14 -156 l 14 -156 z "},"Z":{"ha":940,"x_min":14,"x_max":783,"o":"m 14 153 l 14 0 l 783 0 l 783 153 l 322 153 l 322 307 l 475 307 l 475 461 l 629 461 l 629 615 l 783 615 l 783 769 l 14 769 l 14 615 l 475 615 l 475 461 l 321 461 l 321 307 l 167 307 l 167 153 l 14 153 l 14 153 z "},"[":{"ha":479,"x_min":14,"x_max":321,"o":"m 14 924 l 14 -154 l 321 -154 l 321 -1 l 168 -1 l 168 769 l 321 769 l 321 924 l 14 924 l 14 924 z "},"\\":{"ha":933,"x_min":14,"x_max":783,"o":"m 631 153 l 631 0 l 783 0 l 783 153 l 631 153 l 631 153 m 476 307 l 476 154 l 629 154 l 629 307 l 476 307 l 476 307 m 322 461 l 322 308 l 475 308 l 475 461 l 322 461 l 322 461 m 168 615 l 168 463 l 321 463 l 321 615 l 168 615 l 168 615 m 14 769 l 14 617 l 167 617 l 167 769 l 14 769 l 14 769 z "},"]":{"ha":474,"x_min":14,"x_max":321,"o":"m 14 -1 l 14 -154 l 321 -154 l 321 924 l 14 924 l 14 769 l 167 769 l 167 -1 l 14 -1 l 14 -1 z "},"|":{"ha":324,"x_min":14,"x_max":167,"o":"m 14 924 l 14 -154 l 167 -154 l 167 924 l 14 924 l 14 924 z "},"Ä":{"ha":936,"x_min":14,"x_max":783,"o":"m 14 461 l 14 0 l 783 0 l 783 769 l 629 769 l 629 924 l 475 924 l 475 771 l 321 771 l 321 924 l 167 924 l 167 769 l 14 769 l 14 615 l 629 615 l 629 461 l 14 461 l 14 461 m 168 307 l 629 307 l 629 154 l 168 154 l 168 307 l 168 307 z "},"Å":{"ha":940,"x_min":14,"x_max":783,"o":"m 14 461 l 14 0 l 783 0 l 783 769 l 475 769 l 475 924 l 321 924 l 321 769 l 14 769 l 14 615 l 629 615 l 629 461 l 14 461 l 14 461 m 168 307 l 629 307 l 629 154 l 168 154 l 168 307 l 168 307 z "},"Ö":{"ha":936,"x_min":14,"x_max":783,"o":"m 14 769 l 14 0 l 783 0 l 783 769 l 629 769 l 629 924 l 475 924 l 475 771 l 321 771 l 321 924 l 167 924 l 167 769 l 14 769 l 14 769 m 168 615 l 629 615 l 629 154 l 168 154 l 168 615 l 168 615 z "},"":{"ha":0,"x_min":0,"x_max":0,"o":""},"":{"ha":694,"x_min":0,"x_max":0,"o":""},"":{"ha":182,"x_min":14,"x_max":167,"o":"m 14 -1 l 14 -154 l 167 -154 l 167 -1 l 14 -1 l 14 -1 m 14 924 l 14 771 l 167 771 l 167 924 l 14 924 l 14 924 z "}}}
